<svg id="No_product" xmlns="http://www.w3.org/2000/svg" xmlns:xlink="http://www.w3.org/1999/xlink" width="190.996" height="159.493" viewBox="0 0 190.996 159.493">
  <defs>
    <linearGradient id="linear-gradient" x1="0.5" y1="-0.023" x2="0.5" y2="1.011" gradientUnits="objectBoundingBox">
      <stop offset="0" stop-color="#fdfeff"/>
      <stop offset="0.996" stop-color="#ecf0f5"/>
    </linearGradient>
    <filter id="Path" x="0.864" y="7.306" width="190.132" height="152.187" filterUnits="userSpaceOnUse">
      <feOffset dy="11" input="SourceAlpha"/>
      <feGaussianBlur stdDeviation="11" result="blur"/>
      <feFlood flood-color="#657a93" flood-opacity="0.271"/>
      <feComposite operator="in" in2="blur"/>
      <feComposite in="SourceGraphic"/>
    </filter>
    <linearGradient id="linear-gradient-2" x1="2.221" y1="-0.023" x2="2.472" y2="1.02" gradientUnits="objectBoundingBox">
      <stop offset="0" stop-color="#b0bacc"/>
      <stop offset="1" stop-color="#969eae"/>
    </linearGradient>
    <linearGradient id="linear-gradient-3" x1="1.011" y1="0" x2="1.245" y2="1" xlink:href="#linear-gradient-2"/>
    <linearGradient id="linear-gradient-4" x1="-0.142" y1="-0.023" x2="0.109" y2="1.02" xlink:href="#linear-gradient-2"/>
    <linearGradient id="linear-gradient-5" x1="0" y1="0.5" x2="1" y2="0.5" xlink:href="#linear-gradient-2"/>
    <linearGradient id="linear-gradient-6" x1="0" y1="0.5" x2="1" y2="0.5" xlink:href="#linear-gradient-2"/>
  </defs>
  <path id="Path-2" data-name="Path" d="M137.26,68.765a68.7,68.7,0,0,1-20.44,49A67.809,67.809,0,0,1,68.63,137.53a68.765,68.765,0,1,1,68.63-68.765Z" transform="translate(28.02 5.55)" fill="#eaeef9"/>
  <path id="Path-3" data-name="Path" d="M5.55,11.1A5.55,5.55,0,1,0,0,5.55,5.545,5.545,0,0,0,5.55,11.1Z" transform="translate(153.774 18.139)" fill="#eaeef9"/>
  <path id="Path-4" data-name="Path" d="M3.79,7.58A3.79,3.79,0,1,0,0,3.79,3.787,3.787,0,0,0,3.79,7.58Z" transform="translate(163.656 0)" fill="#eaeef9"/>
  <path id="Path-5" data-name="Path" d="M3.79,7.58A3.79,3.79,0,1,0,0,3.79,3.787,3.787,0,0,0,3.79,7.58Z" transform="translate(26.396 21.523)" fill="#eaeef9"/>
  <path id="Path-6" data-name="Path" d="M7.039,14.078A7.039,7.039,0,1,0,0,7.039,7.04,7.04,0,0,0,7.039,14.078Z" transform="translate(0 88.122)" fill="#eaeef9"/>
  <g transform="matrix(1, 0, 0, 1, 0, 0)" filter="url(#Path)">
    <path id="Path-7" data-name="Path" d="M124.132,5.591V80.6a5.557,5.557,0,0,1-5.562,5.591H5.6A5.616,5.616,0,0,1,0,80.6V5.591A5.6,5.6,0,0,1,5.6,0H118.57A5.591,5.591,0,0,1,124.132,5.591Z" transform="translate(33.86 29.31)" fill="url(#linear-gradient)"/>
  </g>
  <path id="Path-8" data-name="Path" d="M124.132,5.591v8.393H0V5.591A5.6,5.6,0,0,1,5.6,0H118.57A5.591,5.591,0,0,1,124.132,5.591Z" transform="translate(33.864 29.306)" fill="#d5ddea"/>
  <path id="Path-9" data-name="Path" d="M2.1,4.21A2.1,2.1,0,1,0,0,2.1,2.1,2.1,0,0,0,2.1,4.21Z" transform="translate(39.587 34.18)" fill="#989fb0"/>
  <path id="Path-10" data-name="Path" d="M2.1,4.21A2.1,2.1,0,1,0,0,2.1,2.1,2.1,0,0,0,2.1,4.21Z" transform="translate(46.438 34.18)" fill="#989fb0"/>
  <path id="Path-11" data-name="Path" d="M2.1,4.21A2.1,2.1,0,1,0,0,2.1,2.1,2.1,0,0,0,2.1,4.21Z" transform="translate(53.25 34.18)" fill="#989fb0"/>
  <path id="Path-12" data-name="Path" d="M0,.5H72.3" transform="translate(59.778 93.876)" fill="none" stroke="#d5ddea" stroke-linecap="round" stroke-linejoin="round" stroke-miterlimit="10" stroke-width="2"/>
  <path id="Path-13" data-name="Path" d="M0,.5H49.492" transform="translate(71.184 101.619)" fill="none" stroke="#d5ddea" stroke-linecap="round" stroke-linejoin="round" stroke-miterlimit="10" stroke-width="2"/>
  <path id="Shape" d="M10.478,22.39v-4.02H0V13.591L9.712,0h5.563V14.24h2.5v4.129h-2.54v4.02ZM17.773,14.24Zm0-.04v.04Z" transform="translate(66.066 58.369)" fill="url(#linear-gradient-2)"/>
  <path id="Shape-2" data-name="Shape" d="M0,11.669C0,4.454,4.433,0,9.553,0S19.1,4.454,19.1,11.669,14.671,23.351,9.553,23.351C4.474,23.351,0,18.883,0,11.669Z" transform="translate(86.216 57.855)" fill="url(#linear-gradient-3)"/>
  <path id="Shape-3" data-name="Shape" d="M10.478,22.39v-4.02H0V13.591L9.712,0h5.563V14.24h2.5v4.129h-2.54v4.02ZM17.773,14.24Zm0-.04v.04Z" transform="translate(108.061 58.369)" fill="url(#linear-gradient-4)"/>
  <path id="Path-14" data-name="Path" d="M27,33.178,0,6.2,6.19,0,33.17,27.005Z" transform="translate(125.506 98.884)" fill="#858b9b"/>
  <path id="Path-15" data-name="Path" d="M22,28.278,1.3,7.567A4.435,4.435,0,0,1,7.572,1.3L28.276,22A4.439,4.439,0,0,1,22,28.278Z" transform="translate(139.893 113.273)" fill="#858b9b"/>
  <path id="Path-16" data-name="Path" d="M27.1,36.176.464,9.536a1.609,1.609,0,0,1,0-2.261L7.273.467a1.6,1.6,0,0,1,2.263,0l26.638,26.64a1.609,1.609,0,0,1,0,2.261l-6.809,6.809A1.63,1.63,0,0,1,27.1,36.176Z" transform="translate(133.318 106.701)" fill="url(#linear-gradient-5)"/>
  <path id="Shape-4" data-name="Shape" d="M0,51.168a51.152,51.152,0,1,1,51.142,51.154A51.16,51.16,0,0,1,0,51.168Z" transform="translate(43.778 18.139)" fill="url(#linear-gradient-6)"/>
</svg>
