<svg xmlns="http://www.w3.org/2000/svg" width="17.238" height="19.026" viewBox="0 0 17.238 19.026">
  <g id="Group_534" data-name="Group 534" transform="translate(-468.495 -691.463)">
    <path id="Path_11" data-name="Path 11" d="M470.227,688.49h3.328c0-.46.028-.9-.005-1.345a3.329,3.329,0,0,1,2.012-3.258,3.686,3.686,0,0,1,4.87,1.761,3.222,3.222,0,0,1,.249,1.423c-.019.463,0,.928,0,1.412H484l1.734,14.1H468.495Zm3.327,1.422a.354.354,0,0,0-.081-.027c-.632,0-1.264-.005-1.9,0-.045,0-.123.081-.129.132q-.341,2.7-.67,5.395-.285,2.315-.571,4.63c-.047.382-.09.764-.136,1.153H484.16c-.464-3.776-.927-7.54-1.391-11.316H481.14c-.469,0-.472,0-.467.467a.578.578,0,0,0,.112.463,1.1,1.1,0,0,1-.046,1.54,1.113,1.113,0,0,1-1.634-1.508c.038-.047.091-.1.093-.155.01-.261,0-.523,0-.793h-4.178c0,.2.007.387,0,.573a.6.6,0,0,0,.141.435,1.025,1.025,0,0,1,.177.928,1.1,1.1,0,0,1-.943.826,1.115,1.115,0,0,1-.967-1.844c.048-.056.115-.12.118-.184C473.563,690.39,473.554,690.148,473.554,689.912Zm5.646-1.429c0-.617.024-1.215-.012-1.808a1.542,1.542,0,0,0-.251-.693,2.231,2.231,0,0,0-3.241-.46,1.7,1.7,0,0,0-.68,1.366q0,.687.007,1.374c0,.073,0,.145,0,.221Z" transform="translate(0 7.906)" fill="#116ca5"/>
  </g>
</svg>