<svg xmlns="http://www.w3.org/2000/svg" width="20" height="20.009" viewBox="0 0 20 20.009">
  <g id="Group_502" data-name="Group 502" transform="translate(-6619.883 -1366.504)">
    <path id="Path_951" data-name="Path 951" d="M6629.938,1386.513a10,10,0,1,1,9.944-10.094A10.065,10.065,0,0,1,6629.938,1386.513Zm-.074-18.515a8.509,8.509,0,1,0,8.523,8.46A8.449,8.449,0,0,0,6629.864,1368Z" transform="translate(0 0)" fill="#116ca5"/>
    <path id="Path_952" data-name="Path 952" d="M6657.636,1380.044a3.152,3.152,0,0,1,.493,1.049,28.118,28.118,0,0,1,0,3.617,2.057,2.057,0,0,0,1.216,2.3,14.391,14.391,0,0,1,2.5,1.636c.276.219.318.734.466,1.114-.432.047-.969.281-1.276.108a42.43,42.43,0,0,1-3.772-2.426,1.606,1.606,0,0,1-.574-1.1c-.062-1.7-.055-3.412,0-5.117a3.855,3.855,0,0,1,.444-1.172Z" transform="translate(-27.526 -10.138)" fill="#116ca5"/>
  </g>
</svg>