<svg xmlns="http://www.w3.org/2000/svg" width="14.709" height="16.176" viewBox="0 0 14.709 16.176">
  <path id="fav_delete" d="M12.54,4.935V4.348A3.646,3.646,0,0,0,12.38,2.8a1.467,1.467,0,0,0-.641-.641A3.646,3.646,0,0,0,10.191,2H9.017a3.646,3.646,0,0,0-1.547.16,1.468,1.468,0,0,0-.641.641,3.646,3.646,0,0,0-.16,1.547v.587M8.137,8.971V12.64m2.935-3.669V12.64M3,4.935H16.209m-1.468,0v8.219a5.469,5.469,0,0,1-.24,2.32,2.2,2.2,0,0,1-.962.962,5.469,5.469,0,0,1-2.32.24H7.99a5.469,5.469,0,0,1-2.32-.24,2.2,2.2,0,0,1-.962-.962,5.469,5.469,0,0,1-.24-2.32V4.935" transform="translate(-2.25 -1.25)" fill="none" stroke="#575757" stroke-linecap="round" stroke-linejoin="round" stroke-width="1.5"/>
</svg>
