<svg xmlns="http://www.w3.org/2000/svg" width="16.052" height="14.597" viewBox="0 0 16.052 14.597">
  <path id="office_checkout" d="M12.187,5.91a5.471,5.471,0,0,0-.074-1.293,2.183,2.183,0,0,0-1.543-1.544A5.47,5.47,0,0,0,9.276,3a5.471,5.471,0,0,0-1.293.074A2.183,2.183,0,0,0,6.44,4.618,5.47,5.47,0,0,0,6.366,5.91M4.328,16.1h9.9a3.615,3.615,0,0,0,1.534-.159,1.455,1.455,0,0,0,.636-.636,3.615,3.615,0,0,0,.159-1.534V8.239a3.615,3.615,0,0,0-.159-1.534,1.455,1.455,0,0,0-.636-.636,3.615,3.615,0,0,0-1.534-.159h-9.9a3.615,3.615,0,0,0-1.534.159,1.455,1.455,0,0,0-.636.636A3.615,3.615,0,0,0,2,8.239v5.53A3.615,3.615,0,0,0,2.159,15.3a1.455,1.455,0,0,0,.636.636A3.615,3.615,0,0,0,4.328,16.1Z" transform="translate(-1.25 -2.25)" fill="none" stroke="#1a1615" stroke-linecap="round" stroke-linejoin="round" stroke-width="1.5"/>
</svg>
