<svg xmlns="http://www.w3.org/2000/svg" width="15.4" height="22" viewBox="0 0 15.4 22">
  <g id="pickup_home" transform="translate(-5.5 -2.2)">
    <g id="Group_73884" data-name="Group 73884">
      <path id="Path_67163" data-name="Path 67163" d="M12.1,4.4a2.2,2.2,0,1,1,2.2,2.2A2.2,2.2,0,0,1,12.1,4.4Zm-.44,13.42a1.1,1.1,0,0,1,.22,1.54l-3.3,4.4a1.1,1.1,0,0,1-1.76-1.32l3.3-4.4a1.1,1.1,0,0,1,1.54-.22Zm1.72-10.1a1.1,1.1,0,0,1,.9,1.265l-1.006,6.042,2.9,2.9a1.1,1.1,0,0,1,.206.286l2.2,4.4a1.1,1.1,0,0,1-1.967.983L14.5,19.352l-3.173-3.175a1.1,1.1,0,0,1-.308-.958l1.1-6.6a1.1,1.1,0,0,1,1.266-.9Z" fill="#1a1615" fill-rule="evenodd"/>
      <path id="Path_67164" data-name="Path 67164" d="M12.934,7.733a1.1,1.1,0,0,1,1.045.289l3.115,3.116,3.054,1.017a1.1,1.1,0,1,1-.7,2.088l-3.3-1.1a1.1,1.1,0,0,1-.43-.266l-2.86-2.86-3.382.847L7.515,13.81a1.1,1.1,0,0,1-1.83-1.221l2.2-3.3a1.1,1.1,0,0,1,.649-.456Z" fill="#1a1615" fill-rule="evenodd"/>
    </g>
  </g>
</svg>
