<svg xmlns="http://www.w3.org/2000/svg" width="45" height="45" viewBox="0 0 45 45">
  <g id="Group_73934" data-name="Group 73934" transform="translate(-0.242)">
    <rect id="Rectangle_9741" data-name="Rectangle 9741" width="45" height="45" transform="translate(0.242)" fill="#fff"/>
    <path id="Path_67206" data-name="Path 67206" d="M13.416,26.735H28.638m-1.9-11.416h.019m-11.435,0h.019m24.716,5.708A19.027,19.027,0,1,1,21.027,2,19.027,19.027,0,0,1,40.054,21.027ZM27.687,15.319a.951.951,0,1,1-.951-.951A.951.951,0,0,1,27.687,15.319Zm-11.416,0a.951.951,0,1,1-.951-.951A.951.951,0,0,1,16.27,15.319Z" transform="translate(1.955 1.805)" fill="none" stroke="#877d78" stroke-linecap="round" stroke-linejoin="round" stroke-width="2.5"/>
  </g>
</svg>
