<svg xmlns="http://www.w3.org/2000/svg" width="45" height="45" viewBox="0 0 45 45">
  <g id="Group_73933" data-name="Group 73933" transform="translate(-0.158)">
    <rect id="Rectangle_9742" data-name="Rectangle 9742" width="45" height="45" transform="translate(0.158)" fill="#fff"/>
    <path id="Path_67205" data-name="Path 67205" d="M29.117,29.117a10.458,10.458,0,0,0-7.748-3.874,10.458,10.458,0,0,0-7.748,3.874M27.18,15.558H27.2m-11.641,0h.019m25.16,5.811A19.369,19.369,0,1,1,21.369,2,19.369,19.369,0,0,1,40.738,21.369Zm-12.59-5.811a.968.968,0,1,1-.968-.968A.969.969,0,0,1,28.148,15.558Zm-11.621,0a.968.968,0,1,1-.968-.968A.968.968,0,0,1,16.527,15.558Z" transform="translate(1.074 1.464)" fill="none" stroke="#877d78" stroke-linecap="round" stroke-linejoin="round" stroke-width="2.5"/>
  </g>
</svg>
